<?xml version="1.0" encoding="utf-8"?>
<!-- Generator: Adobe Illustrator 24.3.0, SVG Export Plug-In . SVG Version: 6.00 Build 0)  -->
<svg version="1.1" id="Design" xmlns="http://www.w3.org/2000/svg" xmlns:xlink="http://www.w3.org/1999/xlink" x="0px" y="0px"
	 viewBox="0 0 1280 720" style="enable-background:new 0 0 1280 720;" xml:space="preserve">
<style type="text/css">
	.st0{opacity:0.8;fill:#E8E8E8;}
	.st1{opacity:0.6;fill:#E8E8E8;}
	.st2{opacity:0.44;fill:#E8E8E8;}
	.st3{opacity:0.33;fill:#E8E8E8;}
	.st4{opacity:0.25;fill:#E8E8E8;}
	.st5{opacity:0.19;fill:#E8E8E8;}
	.st6{opacity:0.14;fill:#E8E8E8;}
	.st7{opacity:9.000000e-02;fill:#E8E8E8;}
	.st8{opacity:5.000000e-02;fill:#E8E8E8;}
</style>
<path class="st0" d="M657.3,677.5c-11.1,0-22.2-2.5-32.4-7.5L406,563.2c-23.7-11.6-39.6-35.1-41.4-61.4l-17-243
	c-1.8-26.3,10.6-51.8,32.5-66.6L582,56c21.9-14.8,50.2-16.7,73.9-5.2l218.9,106.8c23.7,11.6,39.6,35.1,41.4,61.4l17,243
	c1.8,26.3-10.6,51.8-32.5,66.6L698.8,664.8C686.4,673.2,671.9,677.5,657.3,677.5z M623.4,44.5c-14.3,0-28.6,4.2-40.8,12.4
	L380.7,193.2c-21.5,14.5-33.8,39.6-32,65.5l17,243c1.8,25.9,17.4,49.1,40.8,60.5l218.9,106.8c23.3,11.4,51.2,9.4,72.8-5.1
	l201.9-136.2c21.5-14.5,33.8-39.6,32-65.5l-17-243c-1.8-25.9-17.4-49.1-40.8-60.5L655.4,51.9C645.3,46.9,634.3,44.5,623.4,44.5z"/>
<path class="st1" d="M690.8,700.8c-8.8,0-17.6-1.4-26.1-4.4l-250.3-86.2c-27.1-9.3-47.3-32.6-52.8-60.7L311,289.6
	c-5.5-28.1,4.6-57.3,26.2-76.1L537.1,39.7c21.6-18.8,51.9-24.7,79-15.4l250.3,86.2c27.1,9.3,47.3,32.6,52.8,60.7l50.5,259.9
	c5.5,28.1-4.6,57.3-26.2,76.1L743.7,681C728.9,693.9,710,700.8,690.8,700.8z M590,21.2c-18.9,0-37.5,6.7-52.1,19.4L338,214.3
	c-21.3,18.5-31.2,47.3-25.8,75l50.5,259.9c5.4,27.7,25.3,50.7,52,59.9l250.3,86.2c26.7,9.2,56.5,3.4,77.9-15.1l199.8-173.7
	c21.3-18.5,31.2-47.3,25.8-75l-50.5-259.9c-5.4-27.7-25.3-50.7-52-59.9L615.7,25.5C607.3,22.6,598.6,21.2,590,21.2z"/>
<path class="st2" d="M729.2,721.5c-6,0-12.1-0.6-18.1-1.9l-281.5-59.8c-30.5-6.5-55.4-28.9-65-58.5l-88.9-273.7
	c-9.6-29.6-2.7-62.4,18.2-85.5L486.5,28.2c20.8-23.1,52.7-33.5,83.2-27L851.1,61c30.5,6.5,55.4,28.9,65,58.5l88.9,273.7
	c9.6,29.6,2.7,62.4-18.2,85.5L794.3,692.6l-0.4-0.4l0.4,0.4C777.6,711.2,753.7,721.5,729.2,721.5z M551.6,0.4
	c-24.2,0-47.7,10.2-64.2,28.5L294.8,242.8c-20.6,22.8-27.4,55.2-17.9,84.4l88.9,273.7c9.5,29.2,34.1,51.3,64.1,57.7l281.5,59.8
	c30.1,6.4,61.5-3.8,82-26.7L986,478c20.6-22.8,27.4-55.2,17.9-84.4L915,119.9c-9.5-29.2-34.1-51.3-64.1-57.7L569.4,2.3
	C563.5,1,557.5,0.4,551.6,0.4z"/>
<path class="st3" d="M772.5,738.9c-2.7,0-5.5-0.1-8.2-0.4l-311.6-27.3c-33.7-2.9-63.5-23.8-77.8-54.5L242.7,373.3
	c-14.3-30.7-11.1-66.9,8.3-94.6L430.4,22.4c19.4-27.7,52.4-43.1,86.1-40.1L828.1,9.5c33.7,2.9,63.5,23.8,77.8,54.5l132.2,283.5
	c14.3,30.7,11.1,66.9-8.3,94.6L850.4,698.4C832.6,723.8,803.3,738.9,772.5,738.9z M243.7,372.8l132.2,283.5
	c14.1,30.3,43.6,50.9,76.9,53.8l311.6,27.3c33.3,2.9,65.9-12.3,85-39.7l179.4-256.2c19.2-27.4,22.3-63.2,8.2-93.5L904.9,64.5
	c-14.1-30.3-43.6-50.9-76.9-53.8L516.4-16.6c-33.3-2.9-65.9,12.3-85,39.7L251.9,279.3C232.7,306.7,229.6,342.5,243.7,372.8z"/>
<path class="st4" d="M480.8,763.8c-35.4,0-68.7-18.4-87.5-48.5L213.1,426.9c-19.5-31.2-20.9-70.7-3.6-103.1L369.1,23.6
	c17.3-32.5,50.8-53.4,87.5-54.7L796.4-43c36.7-1.3,71.6,17.3,91.1,48.5l180.2,288.4c19.5,31.2,20.9,70.7,3.6,103.1L911.7,697.2
	c-17.3,32.5-50.8,53.4-87.5,54.7l-339.8,11.9C483.2,763.8,482,763.8,480.8,763.8z M796.4-42.4l0,0.6L456.6-29.9
	c-36.3,1.3-69.5,22-86.5,54.1L210.5,324.4c-17.1,32.1-15.7,71.2,3.6,102l180.2,288.4c19.3,30.8,53.8,49.2,90.1,47.9l339.8-11.9
	c36.3-1.3,69.5-22,86.5-54.1l159.6-300.2c17.1-32.1,15.7-71.2-3.6-102L886.6,6.1c-19.3-30.8-53.8-49.2-90.1-47.9L796.4-42.4z"/>
<path class="st5" d="M508.1,817.5c-33.5,0-65.8-15.1-87.3-41.6L188.2,488.8c-25.1-31-31.8-73.5-17.5-110.7L303.1,33
	c14.3-37.3,47.7-64.3,87.1-70.6l365-57.8c39.4-6.2,79.5,9.1,104.7,40.2L1092.6,232c25.1,31,31.9,73.5,17.5,110.7l-132.4,345
	l-0.5-0.2l0.5,0.2c-14.3,37.3-47.7,64.3-87.1,70.6l-365,57.8C519.7,817.1,513.9,817.5,508.1,817.5z M772.7-95.6
	c-5.7,0-11.5,0.4-17.2,1.4l-365,57.8c-39,6.2-72.1,32.9-86.2,69.8l-132.4,345c-14.2,36.9-7.5,78.9,17.4,109.6l232.6,287.2
	c24.9,30.7,64.6,45.9,103.6,39.8l365-57.8c39-6.2,72.1-32.9,86.2-69.8l132.4-345c14.2-36.9,7.5-78.9-17.4-109.6L859.1-54.5
	C837.9-80.7,805.9-95.6,772.7-95.6z"/>
<path class="st6" d="M543.4,872c-31.2,0-61.8-12-84.8-34.2l-289-279.1c-31.2-30.1-44.1-75-33.6-117.1l97.2-389.8
	c10.5-42.1,42.9-75.7,84.6-87.6L704-146.5c41.7-12,87-0.7,118.2,29.5l289,279.1c31.2,30.1,44.1,75,33.6,117.1l-97.2,389.8
	c-10.5,42.1-42.9,75.7-84.6,87.6L576.8,867.3C565.8,870.4,554.5,872,543.4,872z M737.4-150c-11.1,0-22.2,1.5-33.1,4.6L318.2-34.6
	c-41.3,11.8-73.4,45.1-83.8,86.8l-97.2,389.8c-10.4,41.7,2.3,86.1,33.3,116l289,279.1c30.9,29.8,75.8,41,117.1,29.2l386.2-110.7
	c41.3-11.8,73.4-45.1,83.8-86.8l97.2-389.8c10.4-41.7-2.3-86.1-33.3-116l-289-279.1C798.6-138.2,768.3-150,737.4-150z"/>
<path class="st7" d="M587.3,926.1c-28.4,0-56.5-9.1-79.8-26.6L158.8,636.7c-37.6-28.4-57.5-75.1-51.7-121.8l53.2-433.4
	c5.7-46.8,36.3-87.3,79.7-105.7l401.9-170.6l0.2,0.5l-0.2-0.5c43.4-18.4,93.7-12.2,131.4,16.1L1122,84.1
	c37.6,28.4,57.5,75.1,51.7,121.8l-53.2,433.4c-5.7,46.8-36.3,87.3-79.7,105.7L638.9,915.6C622.3,922.7,604.8,926.1,587.3,926.1z
	 M693.5-204.2c-17.3,0-34.7,3.4-51.1,10.4L240.4-23.2c-43,18.3-73.3,58.4-79,104.8L108.2,515c-5.7,46.4,13.9,92.6,51.3,120.8
	l348.7,262.8c37.3,28.1,87.2,34.2,130.2,16l401.9-170.6c43-18.3,73.3-58.4,79-104.8l53.2-433.4c5.7-46.4-13.9-92.6-51.3-120.8
	L772.6-177.8C749.5-195.2,721.6-204.2,693.5-204.2z"/>
<path class="st8" d="M640.4,978.8c-24.9,0-49.7-6.4-71.9-19.2l-411-237.3c-44.4-25.6-71.9-73.3-71.9-124.6V123.1
	c0-51.2,27.6-98.9,71.9-124.6l411-237.3c44.4-25.6,99.5-25.6,143.8,0l411,237.3c44.4,25.6,71.9,73.3,71.9,124.6v474.6
	c0,51.2-27.6,98.9-71.9,124.6l-411,237.3C690.1,972.4,665.3,978.8,640.4,978.8z M640.4-256.8c-24.7,0-49.3,6.4-71.3,19.1L158-0.5
	c-44,25.4-71.3,72.7-71.3,123.5v474.6c0,50.8,27.3,98.1,71.3,123.5l411,237.3c44,25.4,98.7,25.4,142.7,0l411-237.3
	c44-25.4,71.3-72.7,71.3-123.5V123.1c0-50.8-27.3-98.1-71.3-123.5l-411-237.3C689.7-250.5,665.1-256.8,640.4-256.8z"/>
</svg>
