<?xml version="1.0" encoding="utf-8"?>
<!-- Generator: Adobe Illustrator 24.3.0, SVG Export Plug-In . SVG Version: 6.00 Build 0)  -->
<svg version="1.1" id="Design" xmlns="http://www.w3.org/2000/svg" xmlns:xlink="http://www.w3.org/1999/xlink" x="0px" y="0px"
	 viewBox="0 0 1280 720" style="enable-background:new 0 0 1280 720;" xml:space="preserve">
<style type="text/css">
	.st0{opacity:0.52;fill:#EDEDED;}
	.st1{opacity:0.74;fill:#FFFFFF;}
</style>
<path class="st0" d="M1100.5,127.9L789.7-132.9c-33.5-28.1-79.5-36.2-120.6-21.3L287.8-15.4c-41.1,15-71.1,50.7-78.7,93.8L138.6,478
	c-7.6,43.1,8.4,87,41.9,115.1l310.8,260.8c33.5,28.1,79.5,36.2,120.6,21.3l381.3-138.8c41.1-15,71.1-50.7,78.7-93.8l70.5-399.6
	C1150,199.9,1134,156,1100.5,127.9z"/>
<path class="st1" d="M939,42.3L616.3-75.2c-34.8-12.7-73.7-5.8-102.1,18L251.1,163.6c-28.4,23.8-41.9,60.9-35.5,97.4l59.6,338.2
	c6.4,36.5,31.8,66.7,66.6,79.4l322.7,117.5c34.8,12.7,73.7,5.8,102.1-18l263.1-220.8c28.4-23.8,41.9-60.9,35.5-97.4l-59.6-338.2
	C999.2,85.2,973.8,55,939,42.3z"/>
</svg>
